<svg width="1606" height="1817" viewBox="0 0 1606 1817" fill="none" xmlns="http://www.w3.org/2000/svg">
  <path d="M430.212 1013.06C445.661 1003.15 465.467 1003.14
480.929 1013.03L711.165 1160.36C740.605 1179.2 739.914 1222.44 709.888 1240.32L479.452 1377.61C464.717 1386.39 446.37 1386.45 431.583 1377.76L200.178 1241.77C169.961 1224.01 169.11 1180.62 198.607 1161.69L430.212 1013.06Z" fill="#F57E00"/>
  <path d="M1113.16 121.225C1128.87 110.726 1149.33 110.652 1165.11 121.035L1386.58 266.751C1415.75 285.939 1414.55 329.098 1384.38 346.645L1162.89 475.433C1148.18 483.984 1130 483.922 1115.36 475.269L897.376 346.492C867.572 328.884 866.384 286.19 895.163 266.952L1113.16 121.225Z" fill="#F57E00"/>
  <path d="M785.204 791.871C800.597 781.986 820.327 781.93 835.775 791.729L1055.79 931.277C1084.84 949.7 1084.9 992.06 1055.92 1010.58L814.08 1165.05C798.868 1174.77 779.435 1174.91 764.079 1165.43L541.832 1028.14C512.404 1009.96 512.03 967.298 541.135 948.607L785.204 791.871Z" fill="#D72828"/>
  <path d="M755.276 1597.43C767.211 1588.56 774.245 1574.57 774.245 1559.71L774.245 1322.61C774.245 1285.87 733.992 1263.34 702.675 1282.54L487.403 1414.55C473.467 1423.1 464.973 1438.27 464.973 1454.62L464.974 1719.65C464.974 1758.29 508.994 1780.42 540.004 1757.38L755.276 1597.43Z" fill="#FCC14A"/>
  <path d="M1441.09 775.701C1454.82 767.11 1463.16 752.054 1463.16 735.857L1463.16 427.008C1463.16 390.31 1422.98 367.77 1391.66 386.896L1185.04 513.078C1171.07 521.615 1162.54 536.812 1162.54 553.19L1162.54 865.127C1162.54 902.052 1203.17 924.556 1234.47 904.971L1441.09 775.701Z" fill="#FCC14A"/>
  <path d="M1094.4 1366.95C1107.42 1358.23 1115.23 1343.58 1115.23 1327.91L1115.23 1108.44C1115.23 1070.76 1073.09 1048.4 1041.88 1069.52L825.902 1215.71C813.379 1224.18 805.699 1238.17 805.266 1253.28L798.894 1475.63C797.8 1513.82 840.312 1537.29 872.047 1516.02L1094.4 1366.95Z" fill="#D72828"/>
  <path d="M1447.89 1114.46C1459.96 1105.61 1467.09 1091.53 1467.09 1076.56L1467.09 891.393C1467.09 853.88 1425.3 831.484 1394.07 852.256L1178.01 995.93C1164.9 1004.64 1157.03 1019.33 1157.03 1035.07L1157.03 1235.05C1157.03 1273.55 1200.78 1295.71 1231.83 1272.94L1447.89 1114.46Z" fill="#FCC14A"/>
  <path d="M425.985 1415.48C440.385 1423.91 449.234 1439.35 449.234 1456.04L449.234 1731.28C449.234 1768.23 408.545 1790.73 377.244 1771.08L154.102 1631C140.405 1622.4 132.091 1607.36 132.091 1591.19L132.091 1325.36C132.091 1289.05 171.51 1266.46 202.842 1284.81L425.985 1415.48Z" fill="#FCC14A"/>
  <path d="M1101.91 518.575C1115.84 527.122 1124.33 542.292 1124.33 558.635L1124.33 852.172C1124.33 889.338 1083.23 911.8 1051.95 891.73L845.446 759.238C831.973 750.594 823.826 735.687 823.826 719.68L823.826 431.934C823.826 395.193 864.089 372.659 895.406 391.874L1101.91 518.575Z" fill="#FCC14A"/>
</svg>
