<svg width="266" height="263" viewBox="0 0 266 263" fill="none" xmlns="http://www.w3.org/2000/svg">
  <circle cx="129" cy="26" r="3.5" fill="#002F47" stroke="#002F47"/>
  <circle cx="262" cy="164" r="3.5" fill="#002F47" stroke="#002F47"/>
  <circle cx="260" cy="54" r="3.5" fill="#002F47" stroke="#002F47"/>
  <circle cx="144" cy="145" r="3.5" fill="#002F47" stroke="#002F47"/>
  <circle cx="4" cy="117" r="3.5" fill="#002F47" stroke="#002F47"/>
  <circle cx="76" cy="259" r="3.5" fill="#002F47" stroke="#002F47"/>
  <circle cx="223" cy="251" r="3.5" fill="#002F47" stroke="#002F47"/>
  <circle cx="203" cy="4" r="3.5" fill="#002F47" stroke="#002F47"/>
  <line x1="203.165" y1="3.81206" x2="260.165" y2="53.8121" stroke="#002F47" stroke-width="0.5"/>
  <line x1="258.156" y1="54.1954" x2="144.156" y2="145.195" stroke="#002F47" stroke-width="0.5"/>
  <line x1="258.06" y1="54.2426" x2="4.06017" y2="117.243" stroke="#002F47" stroke-width="0.5"/>
  <line x1="259.96" y1="164.247" x2="143.96" y2="145.247" stroke="#002F47" stroke-width="0.5"/>
  <line x1="259.75" y1="163.995" x2="261.75" y2="55.9954" stroke="#002F47" stroke-width="0.5"/>
  <line x1="260.23" y1="164.098" x2="223.23" y2="251.098" stroke="#002F47" stroke-width="0.5"/>
  <line x1="144.198" y1="148.847" x2="223.198" y2="250.847" stroke="#002F47" stroke-width="0.5"/>
  <line x1="75.9864" y1="258.75" x2="222.986" y2="250.75" stroke="#002F47" stroke-width="0.5"/>
  <line x1="75.7863" y1="258.87" x2="143.786" y2="146.87" stroke="#002F47" stroke-width="0.5"/>
  <line x1="75.7558" y1="258.947" x2="126.756" y2="25.9465" stroke="#002F47" stroke-width="0.5"/>
  <line x1="75.777" y1="259.113" x2="3.77703" y2="117.113" stroke="#002F47" stroke-width="0.5"/>
  <line x1="4.05238" y1="116.756" x2="144.052" y2="146.756" stroke="#002F47" stroke-width="0.5"/>
  <line x1="75.8863" y1="258.777" x2="261.886" y2="163.777" stroke="#002F47" stroke-width="0.5"/>
  <line x1="203.235" y1="3.91351" x2="262.235" y2="163.914" stroke="#002F47" stroke-width="0.5"/>
  <line x1="203.23" y1="4.09768" x2="144.23" y2="143.098" stroke="#002F47" stroke-width="0.5"/>
  <line x1="203.122" y1="4.21833" x2="4.12179" y2="115.218" stroke="#002F47" stroke-width="0.5"/>
  <line x1="203.249" y1="3.97982" x2="223.249" y2="250.98" stroke="#002F47" stroke-width="0.5"/>
  <line x1="129.231" y1="25.9036" x2="223.231" y2="250.904" stroke="#002F47" stroke-width="0.5"/>
  <line x1="4.12906" y1="118.786" x2="223.129" y2="250.786" stroke="#002F47" stroke-width="0.5"/>
  <line x1="127.179" y1="25.8252" x2="262.179" y2="163.825" stroke="#002F47" stroke-width="0.5"/>
  <line x1="129.248" y1="25.9682" x2="144.248" y2="142.968" stroke="#002F47" stroke-width="0.5"/>
  <line x1="129.147" y1="26.2021" x2="4.14715" y2="117.202" stroke="#002F47" stroke-width="0.5"/>
  <line x1="128.927" y1="25.7609" x2="200.927" y2="3.76091" stroke="#002F47" stroke-width="0.5"/>
</svg>
